<?xml version="1.0" encoding="utf-8"?>
<svg xmlns="http://www.w3.org/2000/svg" viewBox="0 0 64 64" xmlns:bx="https://boxy-svg.com" width="64px" height="64px"><defs><linearGradient gradientUnits="userSpaceOnUse" x1="32" y1="0" x2="32" y2="64" id="gradient-0" gradientTransform="matrix(0.804478, -0.792867, 0.994173, 1.008734, -25.569056, 25.371714)"><stop offset="0" style="stop-color: rgb(186, 218, 85)"/><stop offset="1" style="stop-color: rgb(37.355% 50.439% 0%)"/></linearGradient><bx:export><bx:file format="svg"/></bx:export></defs><rect width="64" height="64" rx="15" style="paint-order: fill; fill: url(&quot;#gradient-0&quot;);"/><g><path d="M 8.943 12.569 C 8.943 5.736 12.777 5.736 20.442 12.569 L 25.143 16.76 L 38.857 16.76 L 43.558 12.569 C 51.223 5.736 55.057 5.736 55.057 12.569 L 55.057 38.328 C 55.057 43.684 50.742 47.998 45.388 47.998 L 27.834 47.998 L 15.637 57.072 C 14.149 58.113 12.068 57.072 12.068 55.287 L 12.068 47.998 L 18.612 47.998 C 13.258 47.998 8.943 43.684 8.943 38.328 L 8.943 12.569 Z M 35.478 38.181 C 37.157 36.173 36.317 35.169 32.959 35.169 L 31.041 35.169 C 27.683 35.169 26.843 36.173 28.522 38.181 L 29.482 39.327 C 31.161 41.336 32.839 41.336 34.518 39.327 L 35.478 38.181 Z" style="stroke-width: 0px; stroke: rgb(255, 255, 255); fill: rgb(255, 255, 255);"/></g></svg>